<mxfile host="app.diagrams.net" modified="2022-06-30T15:07:09.017Z" agent="5.0 (Windows NT 10.0; Win64; x64) AppleWebKit/537.36 (KHTML, like Gecko) Chrome/102.0.0.0 Safari/537.36" etag="MZhvIojZ7QUQlUy2Czhp" version="20.0.4" type="github">
  <diagram id="C5RBs43oDa-KdzZeNtuy" name="Page-1">
    <mxGraphModel dx="573" dy="296" grid="1" gridSize="10" guides="1" tooltips="1" connect="1" arrows="1" fold="1" page="1" pageScale="1" pageWidth="827" pageHeight="1169" math="0" shadow="0">
      <root>
        <mxCell id="WIyWlLk6GJQsqaUBKTNV-0" />
        <mxCell id="WIyWlLk6GJQsqaUBKTNV-1" parent="WIyWlLk6GJQsqaUBKTNV-0" />
        <mxCell id="C6oHbXO-zWB1KZq9_xlf-5" value="" style="edgeStyle=orthogonalEdgeStyle;rounded=0;orthogonalLoop=1;jettySize=auto;html=1;fontSize=16;" parent="WIyWlLk6GJQsqaUBKTNV-1" source="C6oHbXO-zWB1KZq9_xlf-1" target="C6oHbXO-zWB1KZq9_xlf-4" edge="1">
          <mxGeometry relative="1" as="geometry" />
        </mxCell>
        <mxCell id="C6oHbXO-zWB1KZq9_xlf-19" value="f&lt;sub style=&quot;font-size: 16px;&quot;&gt;1&lt;/sub&gt;" style="edgeLabel;html=1;align=center;verticalAlign=middle;resizable=0;points=[];fontSize=16;" parent="C6oHbXO-zWB1KZq9_xlf-5" vertex="1" connectable="0">
          <mxGeometry x="-0.3482" relative="1" as="geometry">
            <mxPoint x="9" as="offset" />
          </mxGeometry>
        </mxCell>
        <mxCell id="C6oHbXO-zWB1KZq9_xlf-13" value="" style="edgeStyle=orthogonalEdgeStyle;rounded=0;orthogonalLoop=1;jettySize=auto;html=1;fontSize=16;" parent="WIyWlLk6GJQsqaUBKTNV-1" source="C6oHbXO-zWB1KZq9_xlf-1" target="C6oHbXO-zWB1KZq9_xlf-12" edge="1">
          <mxGeometry relative="1" as="geometry" />
        </mxCell>
        <mxCell id="C6oHbXO-zWB1KZq9_xlf-21" value="f&lt;sub style=&quot;font-size: 16px;&quot;&gt;2&lt;/sub&gt;" style="edgeLabel;html=1;align=center;verticalAlign=middle;resizable=0;points=[];fontSize=16;" parent="C6oHbXO-zWB1KZq9_xlf-13" vertex="1" connectable="0">
          <mxGeometry x="-0.216" relative="1" as="geometry">
            <mxPoint as="offset" />
          </mxGeometry>
        </mxCell>
        <mxCell id="C6oHbXO-zWB1KZq9_xlf-16" value="" style="edgeStyle=orthogonalEdgeStyle;rounded=0;orthogonalLoop=1;jettySize=auto;html=1;fontSize=16;" parent="WIyWlLk6GJQsqaUBKTNV-1" source="C6oHbXO-zWB1KZq9_xlf-1" target="C6oHbXO-zWB1KZq9_xlf-15" edge="1">
          <mxGeometry relative="1" as="geometry" />
        </mxCell>
        <mxCell id="C6oHbXO-zWB1KZq9_xlf-22" value="f&lt;font style=&quot;font-size: 16px;&quot;&gt;&lt;sub style=&quot;font-size: 16px;&quot;&gt;3&lt;/sub&gt;&lt;/font&gt;" style="edgeLabel;html=1;align=center;verticalAlign=middle;resizable=0;points=[];fontSize=16;" parent="C6oHbXO-zWB1KZq9_xlf-16" vertex="1" connectable="0">
          <mxGeometry x="-0.1577" y="-1" relative="1" as="geometry">
            <mxPoint as="offset" />
          </mxGeometry>
        </mxCell>
        <mxCell id="C6oHbXO-zWB1KZq9_xlf-1" value="Fish Tank" style="ellipse;whiteSpace=wrap;html=1;aspect=fixed;fontSize=16;fillColor=#dae8fc;strokeColor=#6c8ebf;" parent="WIyWlLk6GJQsqaUBKTNV-1" vertex="1">
          <mxGeometry x="270" y="200" width="80" height="80" as="geometry" />
        </mxCell>
        <mxCell id="C6oHbXO-zWB1KZq9_xlf-7" value="" style="edgeStyle=orthogonalEdgeStyle;rounded=0;orthogonalLoop=1;jettySize=auto;html=1;fontSize=16;" parent="WIyWlLk6GJQsqaUBKTNV-1" source="C6oHbXO-zWB1KZq9_xlf-4" target="C6oHbXO-zWB1KZq9_xlf-6" edge="1">
          <mxGeometry relative="1" as="geometry" />
        </mxCell>
        <mxCell id="C6oHbXO-zWB1KZq9_xlf-4" value="Biofilter" style="whiteSpace=wrap;html=1;fontSize=16;fillColor=#d5e8d4;strokeColor=#82b366;" parent="WIyWlLk6GJQsqaUBKTNV-1" vertex="1">
          <mxGeometry x="414" y="220" width="60" height="40" as="geometry" />
        </mxCell>
        <mxCell id="C6oHbXO-zWB1KZq9_xlf-11" style="edgeStyle=orthogonalEdgeStyle;rounded=0;orthogonalLoop=1;jettySize=auto;html=1;exitX=1;exitY=0.5;exitDx=0;exitDy=0;entryX=0.625;entryY=1;entryDx=0;entryDy=0;entryPerimeter=0;fontSize=16;" parent="WIyWlLk6GJQsqaUBKTNV-1" source="C6oHbXO-zWB1KZq9_xlf-6" target="C6oHbXO-zWB1KZq9_xlf-1" edge="1">
          <mxGeometry relative="1" as="geometry" />
        </mxCell>
        <mxCell id="C6oHbXO-zWB1KZq9_xlf-20" value="f&lt;sub style=&quot;font-size: 16px;&quot;&gt;1&lt;/sub&gt;" style="edgeLabel;html=1;align=center;verticalAlign=middle;resizable=0;points=[];fontSize=16;" parent="C6oHbXO-zWB1KZq9_xlf-11" vertex="1" connectable="0">
          <mxGeometry x="0.6273" relative="1" as="geometry">
            <mxPoint as="offset" />
          </mxGeometry>
        </mxCell>
        <mxCell id="C6oHbXO-zWB1KZq9_xlf-6" value="Degasser" style="whiteSpace=wrap;html=1;fontSize=16;fillColor=#ffe6cc;strokeColor=#d79b00;" parent="WIyWlLk6GJQsqaUBKTNV-1" vertex="1">
          <mxGeometry x="510" y="220" width="80" height="40" as="geometry" />
        </mxCell>
        <mxCell id="C6oHbXO-zWB1KZq9_xlf-14" style="edgeStyle=orthogonalEdgeStyle;rounded=0;orthogonalLoop=1;jettySize=auto;html=1;exitX=0;exitY=0.5;exitDx=0;exitDy=0;entryX=0.5;entryY=0;entryDx=0;entryDy=0;fontSize=16;" parent="WIyWlLk6GJQsqaUBKTNV-1" source="C6oHbXO-zWB1KZq9_xlf-12" target="C6oHbXO-zWB1KZq9_xlf-1" edge="1">
          <mxGeometry relative="1" as="geometry" />
        </mxCell>
        <mxCell id="C6oHbXO-zWB1KZq9_xlf-18" value="f&lt;sub style=&quot;font-size: 16px;&quot;&gt;2&lt;br style=&quot;font-size: 16px;&quot;&gt;&lt;/sub&gt;" style="edgeLabel;html=1;align=center;verticalAlign=middle;resizable=0;points=[];fontSize=16;" parent="C6oHbXO-zWB1KZq9_xlf-14" vertex="1" connectable="0">
          <mxGeometry x="0.0946" y="1" relative="1" as="geometry">
            <mxPoint as="offset" />
          </mxGeometry>
        </mxCell>
        <mxCell id="C6oHbXO-zWB1KZq9_xlf-12" value="Degasser" style="whiteSpace=wrap;html=1;fontSize=16;fillColor=#ffe6cc;strokeColor=#d79b00;" parent="WIyWlLk6GJQsqaUBKTNV-1" vertex="1">
          <mxGeometry x="140" y="221.25" width="80" height="37.5" as="geometry" />
        </mxCell>
        <mxCell id="C6oHbXO-zWB1KZq9_xlf-15" value="Disposal" style="whiteSpace=wrap;html=1;fontSize=16;fillColor=#bac8d3;strokeColor=#23445d;" parent="WIyWlLk6GJQsqaUBKTNV-1" vertex="1">
          <mxGeometry x="160" y="320" width="110" height="30" as="geometry" />
        </mxCell>
        <mxCell id="4b2-uaf3fqzbthu6xSA_-2" style="edgeStyle=orthogonalEdgeStyle;rounded=0;orthogonalLoop=1;jettySize=auto;html=1;exitX=0.5;exitY=1;exitDx=0;exitDy=0;entryX=0.993;entryY=0.43;entryDx=0;entryDy=0;entryPerimeter=0;" edge="1" parent="WIyWlLk6GJQsqaUBKTNV-1" source="4b2-uaf3fqzbthu6xSA_-0" target="C6oHbXO-zWB1KZq9_xlf-1">
          <mxGeometry relative="1" as="geometry">
            <Array as="points">
              <mxPoint x="360" y="190" />
              <mxPoint x="360" y="234" />
            </Array>
          </mxGeometry>
        </mxCell>
        <mxCell id="4b2-uaf3fqzbthu6xSA_-3" value="f&lt;sub style=&quot;font-size: 16px;&quot;&gt;4&lt;/sub&gt;" style="edgeLabel;html=1;align=center;verticalAlign=middle;resizable=0;points=[];fontSize=16;" vertex="1" connectable="0" parent="4b2-uaf3fqzbthu6xSA_-2">
          <mxGeometry x="-0.1522" relative="1" as="geometry">
            <mxPoint as="offset" />
          </mxGeometry>
        </mxCell>
        <mxCell id="4b2-uaf3fqzbthu6xSA_-0" value="&lt;font style=&quot;font-size: 16px;&quot;&gt;New water&lt;/font&gt;" style="rounded=0;whiteSpace=wrap;html=1;fillColor=#fff2cc;strokeColor=#d6b656;" vertex="1" parent="WIyWlLk6GJQsqaUBKTNV-1">
          <mxGeometry x="320" y="160" width="90" height="30" as="geometry" />
        </mxCell>
      </root>
    </mxGraphModel>
  </diagram>
</mxfile>
